<svg version="1.2" xmlns="http://www.w3.org/2000/svg" viewBox="0 0 32 32" width="32" height="32">
	<title>taskmate_logo-svg-svg</title>
	<style>
		.s0 { fill: #b163a3 } 
		.s1 { fill: #ffffff } 
		.s2 { fill: #e0978b } 
	</style>
	<g id="Layer">
		<g id="Layer">
			<path id="Shape 2" class="s0" d="m2 8c0-3.3 2.7-6 6-6h16c3.3 0 6 2.7 6 6v16c0 3.3-2.7 6-6 6h-16c-3.3 0-6-2.7-6-6z"/>
			<path id="Layer" class="s1" d="m24.3 11c-0.9 0.9-2.4 0.9-3.3 0-0.9-0.9-2.4-0.9-3.3 0-1 0.9-1 2.4 0 3.3 0.9 1 0.9 2.4 0 3.4-1 0.9-2.4 0.9-3.4 0-0.9-1-0.9-2.4 0-3.4 1-0.9 1-2.4 0-3.3-0.9-0.9-2.4-0.9-3.3 0-0.9 0.9-2.4 0.9-3.3 0-0.9-0.9-0.9-2.4 0-3.3 0.9-0.9 2.4-0.9 3.3 0 0.9 0.9 2.4 0.9 3.3 0 1-0.9 2.4-0.9 3.4 0 0.9 0.9 2.4 0.9 3.3 0 0.9-0.9 2.4-0.9 3.3 0 0.9 0.9 0.9 2.4 0 3.3z"/>
			<path id="Layer" class="s2" d="m11 21c0.9 0.9 0.9 2.4 0 3.3-0.9 0.9-2.4 0.9-3.3 0-0.9-0.9-0.9-2.4 0-3.3 0.9-0.9 0.9-2.4 0-3.3-0.9-1-0.9-2.4 0-3.4 0.9-0.9 2.4-0.9 3.3 0 0.9 1 0.9 2.4 0 3.4-0.9 0.9-0.9 2.4 0 3.3z"/>
			<path id="Layer" class="s2" d="m17.7 24.3c-1 0.9-2.4 0.9-3.4 0-0.9-0.9-0.9-2.4 0-3.3 1-0.9 2.4-0.9 3.4 0 0.9 0.9 0.9 2.4 0 3.3z"/>
			<path id="Layer" class="s2" d="m24.3 21c0.9 0.9 0.9 2.4 0 3.3-0.9 0.9-2.4 0.9-3.3 0-0.9-0.9-0.9-2.4 0-3.3 0.9-0.9 0.9-2.4 0-3.3-0.9-1-0.9-2.4 0-3.4 0.9-0.9 2.4-0.9 3.3 0 0.9 1 0.9 2.4 0 3.4-0.9 0.9-0.9 2.4 0 3.3z"/>
		</g>
	</g>
</svg>