<svg version="1.2" xmlns="http://www.w3.org/2000/svg" viewBox="0 0 672 167" width="672" height="167">
	<title>taskmate_logo-svg</title>
	<style>
		.s0 { fill: #fff } 
		.s1 { fill: #e0978b } 
	</style>
	<g id="Layer">
		<g id="Layer">
			<path id="Layer" class="s0" d="m247.4 51.6v9.7h-19.3v62.7h-11.9l0.1-62.7h-19.4v-9.7z"/>
			<path id="Layer" fill-rule="evenodd" class="s0" d="m245.5 79.8q3.6-6.7 9.8-10.4 6.2-3.7 13.6-3.7 6.8 0 11.9 2.7 5 2.6 8 6.6v-8.4h12v57.4h-12v-8.5q-3 4.1-8.2 6.8-5.2 2.7-11.9 2.7-7.4 0-13.5-3.8-6.2-3.8-9.8-10.6-3.5-6.9-3.5-15.5 0-8.7 3.6-15.3zm40.9 5.2q-2.5-4.4-6.4-6.7-4-2.3-8.5-2.3-4.6 0-8.6 2.2-3.9 2.3-6.4 6.6-2.4 4.3-2.4 10.3 0 5.9 2.4 10.4 2.4 4.5 6.5 6.8 4 2.4 8.5 2.4 4.5 0 8.5-2.3 4-2.3 6.4-6.8 2.4-4.4 2.4-10.3 0-6-2.4-10.3z"/>
			<path id="Layer" class="s0" d="m319.9 122.5q-5.3-2.4-8.5-6.6-3.1-4.3-3.3-9.5h12.3q0.3 3.7 3.5 6.1 3.1 2.5 7.9 2.5 5 0 7.8-1.9 2.8-2 2.8-5 0-3.2-3.1-4.8-3.1-1.5-9.7-3.4-6.5-1.8-10.6-3.5-4-1.6-7-5.1-3-3.4-3-9 0-4.6 2.8-8.4 2.7-3.8 7.7-6 5.1-2.2 11.6-2.2 9.8 0 15.8 4.9 6 5 6.4 13.5h-11.9q-0.3-3.8-3.1-6.1-2.8-2.3-7.6-2.3-4.7 0-7.2 1.8-2.5 1.7-2.5 4.7 0 2.3 1.7 3.8 1.6 1.6 4 2.5 2.4 0.9 7.1 2.2 6.3 1.7 10.3 3.4 4 1.7 6.9 5.1 2.9 3.3 3 8.8 0 4.9-2.7 8.8-2.7 3.8-7.6 6-5 2.2-11.7 2.2-6.7 0-12.1-2.5z"/>
			<path id="Layer" class="s0" d="m384.3 95.4l26.5 28.7h-16.1l-21.2-24.7v24.7h-11.9v-77.1h11.9v44.8l20.8-25.1h16.5z"/>
			<path id="Layer" class="s1" d="m497.8 68.5q5.3 2.9 8.4 8.4 3.1 5.5 3.1 13.3v33.9h-11.8v-32.1q0-7.7-3.8-11.8-3.9-4.2-10.5-4.2-6.7 0-10.6 4.2-3.9 4.1-3.9 11.8v32.1h-11.8v-32.1q0-7.7-3.8-11.8-3.9-4.2-10.6-4.2-6.6 0-10.5 4.2-3.9 4.1-3.9 11.8v32.1h-11.9v-57.4h11.9v6.5q2.9-3.5 7.4-5.5 4.4-2 9.5-2 6.9 0 12.3 2.9 5.4 3 8.4 8.5 2.5-5.2 8.1-8.3 5.5-3.1 11.8-3.1 6.8 0 12.2 2.8z"/>
			<path id="Layer" fill-rule="evenodd" class="s1" d="m516.7 79.8q3.6-6.7 9.8-10.4 6.2-3.7 13.7-3.7 6.8 0 11.8 2.7 5.1 2.7 8.1 6.6v-8.3h12v57.4h-12v-8.5q-3 4-8.2 6.7-5.2 2.7-11.9 2.7-7.4 0-13.5-3.8-6.2-3.8-9.8-10.6-3.6-6.8-3.6-15.5 0-8.6 3.6-15.3zm41 5.2q-2.5-4.4-6.4-6.6-4-2.3-8.6-2.3-4.6 0-8.5 2.2-4 2.2-6.4 6.6-2.5 4.3-2.5 10.2 0 6 2.5 10.4 2.4 4.5 6.4 6.9 4 2.3 8.5 2.3 4.6 0 8.6-2.3 3.9-2.3 6.4-6.7 2.4-4.4 2.4-10.4 0-5.9-2.4-10.3z"/>
			<path id="Layer" class="s1" d="m596.4 76.4l-0.1 31.8q0 3.2 1.6 4.6 1.5 1.4 5.1 1.4h7.3v9.9h-9.4q-8 0-12.3-3.8-4.2-3.7-4.2-12.1v-31.8h-6.8v-9.7h6.8v-14.3h11.9v14.3h14v9.7z"/>
			<path id="Layer" fill-rule="evenodd" class="s1" d="m666.1 99.8h-43.8q0.5 6.9 5.1 11.1 4.5 4.1 11.2 4.1 9.6 0.1 13.6-8h12.8q-2.6 8-9.4 13-6.9 5.1-17 5.1-8.2 0-14.7-3.8-6.5-3.7-10.2-10.4-3.7-6.7-3.7-15.5 0-8.9 3.6-15.6 3.6-6.7 10.1-10.4 6.5-3.6 14.9-3.6 8.2 0 14.5 3.5 6.4 3.6 9.9 10 3.5 6.4 3.5 14.7 0 3.2-0.4 5.8zm-12-9.6q-0.1-6.5-4.7-10.5-4.5-3.9-11.3-3.9-6.1 0-10.5 3.9-4.4 3.9-5.2 10.5z"/>
		</g>
		<g id="Layer">
			<path id="Layer" class="s0" d="m155.7 43.9c-7.8 7.9-20.6 7.9-28.4 0-7.9-7.9-20.7-7.9-28.5 0-7.9 7.9-7.9 20.6 0 28.5 7.8 7.9 7.8 20.6 0 28.5-7.9 7.9-20.7 7.9-28.5 0-7.9-7.9-7.9-20.6 0-28.5 7.9-7.9 7.9-20.6 0-28.5-7.9-7.9-20.6-7.9-28.5 0-7.9 7.8-20.6 7.8-28.5 0-7.9-7.9-7.9-20.7 0-28.5 7.9-7.9 20.6-7.9 28.5 0 7.9 7.8 20.6 7.9 28.5 0 7.9-7.9 20.6-7.9 28.5 0 7.8 7.9 20.6 7.9 28.5 0 7.8-7.9 20.6-7.9 28.5 0 7.8 7.9 7.8 20.6-0.1 28.5z"/>
			<path id="Layer" class="s1" d="m41.8 129.4c7.9 7.9 7.8 20.6 0 28.5-7.9 7.9-20.6 7.9-28.5 0-7.9-7.9-7.9-20.6 0-28.5 7.9-7.9 7.9-20.7 0-28.5-7.9-7.9-7.9-20.7 0-28.5 7.9-7.9 20.6-7.9 28.5 0 7.9 7.8 7.9 20.6 0 28.5-7.9 7.9-7.9 20.6 0 28.5z"/>
			<path id="Layer" class="s1" d="m98.7 157.9c-7.8 7.9-20.6 7.9-28.4 0-7.9-7.9-7.9-20.6 0-28.5 7.8-7.9 20.6-7.9 28.5 0 7.8 7.9 7.8 20.6-0.1 28.5z"/>
			<path id="Layer" class="s1" d="m155.7 129.4c7.9 7.9 7.9 20.6 0 28.5-7.8 7.9-20.6 7.9-28.5 0-7.8-7.9-7.8-20.6 0-28.5 7.9-7.9 7.9-20.6 0-28.5-7.8-7.9-7.8-20.6 0.1-28.5 7.8-7.9 20.6-7.9 28.4 0 7.9 7.9 7.9 20.6 0 28.5-7.8 7.9-7.8 20.6 0 28.5z"/>
		</g>
	</g>
</svg>