<?xml version="1.0" encoding="utf-8"?>
<!-- Generator: Adobe Illustrator 25.4.1, SVG Export Plug-In . SVG Version: 6.00 Build 0)  -->
<svg version="1.1" id="Layer_1" xmlns="http://www.w3.org/2000/svg" xmlns:xlink="http://www.w3.org/1999/xlink" x="0px" y="0px"
	 viewBox="0 0 841.89 595.28" style="enable-background:new 0 0 841.89 595.28;" xml:space="preserve">
<style type="text/css">
	.st0{fill:#924481;}
	.st1{fill:#E0978B;}
</style>
<g>
	<g>
		<path class="st0" d="M331.37,262.61v9.69H312.1v62.69h-11.87v-62.69h-19.37v-9.69H331.37z"/>
		<path class="st0" d="M329.44,290.73c2.4-4.44,5.66-7.9,9.79-10.36c4.13-2.46,8.7-3.7,13.69-3.7c4.51,0,8.45,0.88,11.82,2.66
			c3.37,1.77,6.06,3.98,8.07,6.61v-8.33h11.98v57.38h-11.98v-8.54c-2.01,2.71-4.76,4.96-8.23,6.77c-3.47,1.8-7.43,2.71-11.87,2.71
			c-4.93,0-9.44-1.27-13.54-3.8c-4.1-2.53-7.34-6.07-9.74-10.62c-2.4-4.55-3.59-9.7-3.59-15.46
			C325.85,300.27,327.05,295.17,329.44,290.73z M370.37,295.93c-1.63-2.92-3.77-5.14-6.4-6.66c-2.64-1.53-5.49-2.29-8.54-2.29
			c-3.06,0-5.9,0.75-8.54,2.24c-2.64,1.49-4.77,3.68-6.4,6.56c-1.63,2.88-2.45,6.3-2.45,10.26c0,3.96,0.82,7.43,2.45,10.41
			c1.63,2.99,3.78,5.26,6.46,6.82c2.67,1.56,5.5,2.34,8.49,2.34c3.05,0,5.9-0.76,8.54-2.29c2.64-1.53,4.77-3.76,6.4-6.72
			c1.63-2.95,2.45-6.41,2.45-10.36C372.81,302.28,372,298.85,370.37,295.93z"/>
		<path class="st0" d="M403.9,333.47c-3.58-1.63-6.4-3.85-8.49-6.66c-2.08-2.81-3.19-5.95-3.33-9.42h12.29
			c0.21,2.43,1.37,4.46,3.49,6.09c2.12,1.63,4.77,2.45,7.97,2.45c3.33,0,5.92-0.64,7.76-1.93c1.84-1.28,2.76-2.93,2.76-4.95
			c0-2.15-1.03-3.75-3.07-4.79c-2.05-1.04-5.3-2.19-9.74-3.44c-4.31-1.18-7.81-2.33-10.52-3.44c-2.71-1.11-5.05-2.81-7.03-5.1
			c-1.98-2.29-2.97-5.31-2.97-9.06c0-3.05,0.9-5.85,2.71-8.38c1.8-2.53,4.39-4.53,7.76-5.99c3.37-1.46,7.24-2.19,11.61-2.19
			c6.53,0,11.78,1.65,15.78,4.95c3.99,3.3,6.13,7.79,6.4,13.49H425.4c-0.21-2.57-1.25-4.62-3.12-6.14c-1.87-1.53-4.41-2.29-7.6-2.29
			c-3.12,0-5.52,0.59-7.19,1.77c-1.67,1.18-2.5,2.74-2.5,4.69c0,1.53,0.55,2.81,1.67,3.85c1.11,1.04,2.46,1.86,4.06,2.45
			c1.6,0.59,3.96,1.34,7.08,2.24c4.17,1.11,7.58,2.24,10.26,3.38c2.67,1.15,4.98,2.83,6.92,5.05c1.94,2.22,2.95,5.17,3.02,8.85
			c0,3.26-0.9,6.18-2.71,8.75c-1.81,2.57-4.36,4.58-7.65,6.04c-3.3,1.46-7.17,2.19-11.61,2.19
			C411.52,335.92,407.47,335.1,403.9,333.47z"/>
		<path class="st0" d="M468.31,306.35l26.45,28.64h-16.04l-21.24-24.68v24.68h-11.87v-77.06h11.87v44.78l20.83-25.1h16.45
			L468.31,306.35z"/>
		<path class="st1" d="M581.76,279.48c3.57,1.87,6.39,4.65,8.43,8.33c2.05,3.68,3.07,8.12,3.07,13.33v33.84H581.5v-32.07
			c0-5.14-1.29-9.08-3.85-11.82c-2.57-2.74-6.08-4.11-10.52-4.11s-7.97,1.37-10.57,4.11c-2.6,2.74-3.9,6.68-3.9,11.82v32.07h-11.77
			v-32.07c0-5.14-1.29-9.08-3.85-11.82c-2.57-2.74-6.08-4.11-10.52-4.11c-4.44,0-7.97,1.37-10.57,4.11
			c-2.6,2.74-3.91,6.68-3.91,11.82v32.07h-11.87V277.6h11.87v6.56c1.94-2.36,4.41-4.2,7.39-5.52c2.98-1.32,6.18-1.98,9.58-1.98
			c4.58,0,8.68,0.97,12.29,2.92c3.61,1.94,6.39,4.76,8.33,8.43c1.73-3.47,4.44-6.23,8.12-8.28c3.68-2.05,7.64-3.07,11.87-3.07
			C574.14,276.67,578.19,277.6,581.76,279.48z"/>
		<path class="st1" d="M600.71,290.73c2.4-4.44,5.66-7.9,9.79-10.36c4.13-2.46,8.7-3.7,13.69-3.7c4.51,0,8.45,0.88,11.82,2.66
			c3.37,1.77,6.06,3.98,8.07,6.61v-8.33h11.98v57.38h-11.98v-8.54c-2.01,2.71-4.76,4.96-8.23,6.77c-3.47,1.8-7.43,2.71-11.87,2.71
			c-4.93,0-9.44-1.27-13.54-3.8c-4.1-2.53-7.34-6.07-9.74-10.62c-2.39-4.55-3.59-9.7-3.59-15.46
			C597.12,300.27,598.32,295.17,600.71,290.73z M641.64,295.93c-1.63-2.92-3.77-5.14-6.41-6.66c-2.64-1.53-5.48-2.29-8.54-2.29
			c-3.06,0-5.9,0.75-8.54,2.24c-2.64,1.49-4.77,3.68-6.4,6.56c-1.63,2.88-2.45,6.3-2.45,10.26c0,3.96,0.82,7.43,2.45,10.41
			c1.63,2.99,3.78,5.26,6.46,6.82c2.67,1.56,5.5,2.34,8.49,2.34c3.05,0,5.9-0.76,8.54-2.29c2.64-1.53,4.77-3.76,6.41-6.72
			c1.63-2.95,2.45-6.41,2.45-10.36C644.09,302.28,643.27,298.85,641.64,295.93z"/>
		<path class="st1" d="M680.33,287.29v31.76c0,2.15,0.5,3.7,1.51,4.63c1.01,0.94,2.72,1.41,5.15,1.41h7.29v9.89h-9.37
			c-5.35,0-9.44-1.25-12.29-3.75c-2.85-2.5-4.27-6.56-4.27-12.18v-31.76h-6.77v-9.68h6.77v-14.27h11.97v14.27h13.95v9.68H680.33z"/>
		<path class="st1" d="M750.1,310.72h-43.84c0.35,4.58,2.05,8.26,5.1,11.04c3.05,2.78,6.8,4.17,11.25,4.17
			c6.39,0,10.9-2.67,13.54-8.02h12.81c-1.74,5.28-4.88,9.6-9.42,12.97c-4.55,3.37-10.19,5.05-16.92,5.05
			c-5.48,0-10.4-1.23-14.74-3.7c-4.34-2.46-7.74-5.94-10.2-10.41c-2.47-4.48-3.7-9.67-3.7-15.57c0-5.9,1.2-11.09,3.59-15.57
			c2.4-4.48,5.76-7.93,10.1-10.36c4.34-2.43,9.32-3.64,14.94-3.64c5.42,0,10.24,1.18,14.48,3.54c4.23,2.36,7.53,5.68,9.89,9.94
			c2.36,4.27,3.54,9.18,3.54,14.74C750.51,307.04,750.37,308.98,750.1,310.72z M738.12,301.14c-0.07-4.37-1.63-7.88-4.69-10.52
			c-3.06-2.64-6.84-3.96-11.35-3.96c-4.1,0-7.6,1.3-10.52,3.91c-2.92,2.6-4.65,6.13-5.21,10.57H738.12z"/>
	</g>
	<g>
		<path class="st0" d="M239.72,254.91c-7.87,7.87-20.62,7.87-28.49,0c-7.87-7.87-20.62-7.87-28.49,0c-7.86,7.87-7.86,20.62,0,28.49
			c7.87,7.86,7.87,20.61,0,28.48c-7.86,7.87-20.61,7.87-28.48,0s-7.87-20.62,0-28.48c7.87-7.87,7.87-20.62,0-28.49
			c-7.87-7.87-20.62-7.87-28.49,0c-7.87,7.87-20.62,7.87-28.49,0c-7.87-7.87-7.87-20.62,0-28.49c7.87-7.87,20.62-7.87,28.49,0
			c7.87,7.87,20.62,7.87,28.49,0c7.87-7.87,20.62-7.87,28.48,0c7.87,7.87,20.62,7.87,28.49,0c7.87-7.87,20.62-7.87,28.49,0
			C247.59,234.28,247.59,247.04,239.72,254.91z"/>
		<path class="st1" d="M125.77,340.37c7.87,7.87,7.87,20.62,0,28.49c-7.87,7.87-20.62,7.87-28.49,0c-7.87-7.87-7.87-20.62,0-28.49
			s7.87-20.62,0-28.49s-7.87-20.62,0-28.48c7.87-7.87,20.62-7.87,28.49,0c7.87,7.86,7.87,20.61,0,28.48S117.9,332.5,125.77,340.37z"
			/>
		<path class="st1" d="M182.74,368.86c-7.86,7.87-20.61,7.87-28.48,0c-7.87-7.87-7.87-20.62,0-28.49s20.62-7.87,28.48,0
			C190.61,348.24,190.61,360.99,182.74,368.86z"/>
		<path class="st1" d="M239.72,340.37c7.87,7.87,7.87,20.62,0,28.49c-7.87,7.87-20.62,7.87-28.49,0c-7.87-7.87-7.87-20.62,0-28.49
			c7.87-7.87,7.87-20.62,0-28.49c-7.87-7.87-7.87-20.62,0-28.48c7.87-7.87,20.62-7.87,28.49,0c7.87,7.86,7.87,20.61,0,28.48
			C231.85,319.75,231.85,332.5,239.72,340.37z"/>
	</g>
</g>
</svg>
